<svg width="400" height="400" viewBox="0 0 11 8" xmlns="http://www.w3.org/2000/svg" style="image-rendering: pixelated; background-color: #000000;">
  <g fill="#39ff14">
    <!-- Row 0: ..XX...XX.. -->
    <rect x="2" y="0" width="1" height="1" />
    <rect x="8" y="0" width="1" height="1" />
    
    <!-- Row 1: ...XXXXX... -->
    <rect x="3" y="1" width="5" height="1" />
    
    <!-- Row 2: ..XXXXXXX.. -->
    <rect x="2" y="2" width="7" height="1" />
    
    <!-- Row 3: .XX.XXX.XX. -->
    <rect x="1" y="3" width="2" height="1" />
    <rect x="4" y="3" width="3" height="1" />
    <rect x="8" y="3" width="2" height="1" />

    <!-- Row 4: XXXXXXXXXXX -->
    <rect x="0" y="4" width="11" height="1" />
    
    <!-- Row 5: X.XXXXXXX.X -->
    <rect x="0" y="5" width="1" height="1" />
    <rect x="2" y="5" width="7" height="1" />
    <rect x="10" y="5" width="1" height="1" />
    
    <!-- Row 6: X.X.....X.X -->
    <rect x="0" y="6" width="1" height="1" />
    <rect x="2" y="6" width="1" height="1" />
    <rect x="8" y="6" width="1" height="1" />
    <rect x="10" y="6" width="1" height="1" />

    <!-- Row 7: ...XX.XX... -->
    <rect x="3" y="7" width="2" height="1" />
    <rect x="6" y="7" width="2" height="1" />
  </g>
</svg>
